<svg width="164" height="30" viewBox="0 0 5097 931" fill="none" xmlns="http://www.w3.org/2000/svg">
<path d="M796.811 242.453L410.137 465.507L801.706 693.456C811.216 704.643 803.338 713.034 798.21 715.831L432.513 926.299C417.409 934.69 395.454 929.795 386.364 926.299L25.561 717.929C6.54193 706.182 0.854839 685.065 0.388674 675.975V258.535C-2.96763 240.075 16.2379 220.543 26.2602 213.085L388.461 4.01524C405.243 -3.25675 425.287 0.985246 433.212 4.01524L801.706 217.28C811.775 227.909 802.638 238.49 796.811 242.453Z" fill="#A5B6FB"/>
<path fill-rule="evenodd" clip-rule="evenodd" d="M411.339 466.206L801.706 693.456C811.216 704.643 803.338 713.034 798.21 715.831L432.513 926.299C417.41 934.69 395.454 929.795 386.364 926.299L25.5612 717.929C17.1448 712.73 11.3392 705.697 7.44141 698.683L410.448 466.206H411.339Z" fill="#4A6CF7"/>
<path fill-rule="evenodd" clip-rule="evenodd" d="M410.933 465.97L410.137 465.507L796.811 242.453C802.638 238.49 811.775 227.909 801.706 217.28L433.212 4.01524C425.287 0.985246 405.243 -3.25675 388.461 4.01524L26.2601 213.085C20.9369 217.046 13.0233 224.413 7.27539 233.217L410.448 466.206L410.933 465.97Z" fill="#4A6CF7"/>
<path d="M4957.47 197.1V332.083H5085.52V379.567H4958V646.865C4958 665.005 4958.18 681.367 4958.54 695.95C4958.89 710.177 4960.49 722.448 4963.34 732.763C4966.54 743.078 4971.52 751.081 4978.28 756.772C4985.04 762.107 4994.82 764.775 5007.62 764.775C5012.6 764.775 5017.58 763.886 5022.56 762.107C5027.54 759.973 5031.81 756.594 5035.37 751.97C5039.28 747.346 5042.3 741.478 5044.44 734.364C5046.93 726.894 5048.17 717.824 5048.17 707.154L5096.72 702.352C5096.72 723.338 5093.7 741.3 5087.65 756.239C5081.96 771.177 5074.14 783.449 5064.18 793.052C5054.57 802.3 5043.19 809.236 5030.03 813.86C5016.87 818.484 5003 820.796 4988.42 820.796C4963.52 820.796 4943.24 816.705 4927.59 808.524C4912.3 800.344 4900.21 789.14 4891.31 774.912C4882.78 760.329 4876.91 742.545 4873.71 721.559C4870.51 700.574 4868.91 677.276 4868.91 651.667V379.567H4781.41V337.418C4790.3 337.062 4800.26 336.529 4811.28 335.817C4822.31 334.75 4832.8 333.861 4842.76 333.15C4854.5 332.083 4866.24 331.016 4877.98 329.948C4878.33 327.459 4878.86 323.013 4879.58 316.61C4880.29 309.852 4881 302.205 4881.71 293.668C4882.42 284.776 4883.31 275.706 4884.38 266.458C4885.44 256.855 4886.33 248.141 4887.05 240.315C4887.76 232.135 4888.29 225.377 4888.65 220.041C4889.36 214.35 4889.71 211.327 4889.71 210.971L4957.47 197.1Z" fill="white"/>
<path d="M4618.15 108C4635.93 108 4649.98 112.446 4660.3 121.338C4670.61 129.875 4675.77 141.79 4675.77 157.085C4675.77 172.735 4670.61 185.184 4660.3 194.432C4650.34 203.324 4636.29 207.77 4618.15 207.77C4600.36 207.77 4586.49 203.324 4576.53 194.432C4566.57 185.54 4561.59 173.091 4561.59 157.085C4561.59 141.79 4566.57 129.875 4576.53 121.338C4586.49 112.446 4600.36 108 4618.15 108ZM4674.17 726.361C4674.17 734.897 4675.59 741.655 4678.44 746.635C4681.28 751.259 4685.9 754.816 4692.31 757.305C4698.71 759.439 4706.89 760.862 4716.85 761.574C4727.16 761.929 4739.61 762.107 4754.2 762.107V809.591C4744.95 809.591 4732.5 809.591 4716.85 809.591C4701.2 809.236 4685.55 809.058 4669.9 809.058C4654.25 809.058 4640.38 809.058 4628.28 809.058C4616.19 808.702 4609.08 808.524 4606.94 808.524C4586.67 808.524 4568.71 808.702 4553.06 809.058C4537.76 809.413 4521.93 809.591 4505.57 809.591V762.107C4524.78 762.107 4539.72 761.574 4550.39 760.507C4561.06 759.439 4568.88 757.661 4573.86 755.171C4579.2 752.681 4582.22 749.302 4582.93 745.034C4584 740.41 4584.53 734.541 4584.53 727.428V398.774C4584.53 393.794 4583.11 390.059 4580.27 387.569C4577.78 385.08 4573.51 383.301 4567.46 382.234C4561.41 380.811 4553.41 380.1 4543.45 380.1C4533.85 379.744 4522.11 379.566 4508.24 379.566V332.082C4538.47 332.082 4566.93 331.905 4593.6 331.549C4620.28 331.193 4647.13 330.482 4674.17 329.415V726.361Z" fill="white"/>
<path d="M3630.05 332.083C3648.19 332.438 3665.97 332.794 3683.4 333.15C3701.19 333.15 3717.19 333.15 3731.42 333.15C3744.23 333.15 3759.88 332.972 3778.37 332.616C3797.22 332.26 3817.67 332.083 3839.73 332.083V379.567C3817.32 379.567 3803.98 379.567 3799.71 379.567C3791.53 379.567 3786.02 380.989 3783.17 383.835C3780.68 386.325 3779.44 391.304 3779.44 398.774C3779.44 405.887 3780.33 414.068 3782.11 423.316C3783.88 432.208 3786.02 441.634 3788.51 451.593C3791.35 461.552 3794.38 471.689 3797.58 482.004C3800.78 492.319 3803.98 502.278 3807.18 511.882C3811.09 524.687 3815.54 539.27 3820.52 555.631C3825.86 571.637 3831.19 588.177 3836.53 605.25C3841.86 622.323 3847.02 639.218 3852 655.935C3856.98 672.297 3861.42 687.057 3865.34 700.218C3869.25 713.378 3872.45 724.227 3874.94 732.763C3877.43 740.944 3878.85 745.568 3879.21 746.635C3885.61 725.294 3891.48 705.553 3896.81 687.413C3898.95 679.588 3901.08 671.941 3903.22 664.471C3905.71 656.646 3908.02 649.355 3910.15 642.597C3912.29 635.839 3914.07 629.97 3915.49 624.99C3917.27 619.655 3918.69 615.565 3919.76 612.719L3999.25 371.03H4111.29L4178.52 580.707C4179.94 586.043 4181.72 592.623 4183.85 600.448C4186.34 607.917 4188.83 616.098 4191.32 624.99C4194.17 633.882 4196.84 643.308 4199.33 653.267C4202.17 662.871 4205.02 672.297 4207.86 681.544C4214.26 703.597 4220.84 726.539 4227.6 750.37C4246.45 687.413 4263.35 630.859 4278.29 580.707C4284.69 559.366 4290.92 538.203 4296.96 517.217C4303.36 496.232 4308.88 477.558 4313.5 461.197C4318.48 444.835 4322.57 431.319 4325.77 420.648C4328.97 409.978 4330.93 404.109 4331.64 403.042C4332.35 400.552 4332.89 398.596 4333.24 397.173C4333.6 395.395 4333.95 393.616 4334.31 391.838C4333.6 386.147 4328.62 382.768 4319.37 381.701C4310.48 380.278 4294.29 379.567 4270.82 379.567V332.083C4285.76 332.083 4300.87 332.26 4316.17 332.616C4331.82 332.972 4347.11 333.15 4362.05 333.15C4379.84 333.15 4397.27 332.972 4414.34 332.616C4431.77 332.26 4449.37 332.083 4467.16 332.083V379.567C4451.15 379.567 4439.06 380.278 4430.88 381.701C4422.7 382.768 4415.94 386.503 4410.6 392.905C4405.62 398.952 4401 408.733 4396.73 422.249C4392.46 435.409 4386.42 454.083 4378.59 478.27L4268.15 815.994H4175.32L4048.87 409.444L3921.89 815.994H3827.99L3701.54 436.654C3696.92 423.138 3693.01 412.645 3689.81 405.176C3686.96 397.707 3683.22 392.194 3678.6 388.637C3674.33 384.724 3668.46 382.234 3660.99 381.167C3653.53 380.1 3643.21 379.567 3630.05 379.567V332.083Z" fill="white"/>
<path d="M3456.12 197.1V332.083H3584.17V379.567H3456.65V646.865C3456.65 665.005 3456.83 681.367 3457.19 695.95C3457.54 710.177 3459.14 722.448 3461.99 732.763C3465.19 743.078 3470.17 751.081 3476.93 756.772C3483.68 762.107 3493.47 764.775 3506.27 764.775C3511.25 764.775 3516.23 763.886 3521.21 762.107C3526.19 759.973 3530.46 756.594 3534.01 751.97C3537.93 747.346 3540.95 741.478 3543.08 734.364C3545.57 726.894 3546.82 717.824 3546.82 707.154L3595.37 702.352C3595.37 723.338 3592.35 741.3 3586.3 756.239C3580.61 771.177 3572.78 783.449 3562.83 793.052C3553.22 802.3 3541.84 809.236 3528.68 813.86C3515.52 818.484 3501.65 820.796 3487.06 820.796C3462.17 820.796 3441.89 816.705 3426.24 808.524C3410.95 800.344 3398.85 789.14 3389.96 774.912C3381.43 760.329 3375.56 742.545 3372.36 721.559C3369.15 700.574 3367.55 677.276 3367.55 651.667V379.567H3280.05V337.418C3288.95 337.062 3298.91 336.529 3309.93 335.817C3320.96 334.75 3331.45 333.861 3341.41 333.15C3353.15 332.083 3364.89 331.016 3376.62 329.948C3376.98 327.459 3377.51 323.013 3378.22 316.61C3378.94 309.852 3379.65 302.205 3380.36 293.668C3381.07 284.776 3381.96 275.706 3383.03 266.458C3384.09 256.855 3384.98 248.141 3385.69 240.315C3386.4 232.135 3386.94 225.377 3387.29 220.041C3388.01 214.35 3388.36 211.327 3388.36 210.971L3456.12 197.1Z" fill="white"/>
<path d="M3116.79 108C3134.58 108 3148.63 112.446 3158.94 121.338C3169.26 129.875 3174.42 141.79 3174.42 157.085C3174.42 172.735 3169.26 185.184 3158.94 194.432C3148.98 203.324 3134.93 207.77 3116.79 207.77C3099.01 207.77 3085.14 203.324 3075.18 194.432C3065.22 185.54 3060.24 173.091 3060.24 157.085C3060.24 141.79 3065.22 129.875 3075.18 121.338C3085.14 112.446 3099.01 108 3116.79 108ZM3172.82 726.361C3172.82 734.897 3174.24 741.655 3177.08 746.635C3179.93 751.259 3184.55 754.816 3190.96 757.305C3197.36 759.439 3205.54 760.862 3215.5 761.574C3225.81 761.929 3238.26 762.107 3252.84 762.107V809.591C3243.6 809.591 3231.15 809.591 3215.5 809.591C3199.85 809.236 3184.2 809.058 3168.55 809.058C3152.9 809.058 3139.02 809.058 3126.93 809.058C3114.84 808.702 3107.72 808.524 3105.59 808.524C3085.32 808.524 3067.35 808.702 3051.7 809.058C3036.41 809.413 3020.58 809.591 3004.22 809.591V762.107C3023.43 762.107 3038.37 761.574 3049.04 760.507C3059.71 759.439 3067.53 757.661 3072.51 755.171C3077.85 752.681 3080.87 749.302 3081.58 745.034C3082.65 740.41 3083.18 734.541 3083.18 727.428V398.774C3083.18 393.794 3081.76 390.059 3078.91 387.569C3076.42 385.08 3072.16 383.301 3066.11 382.234C3060.06 380.811 3052.06 380.1 3042.1 380.1C3032.5 379.744 3020.76 379.566 3006.89 379.566V332.082C3037.12 332.082 3065.58 331.905 3092.25 331.549C3118.93 331.193 3145.78 330.482 3172.82 329.415V726.361Z" fill="white"/>
<path d="M2930.59 432.386H2898.58C2891.47 415.313 2882.58 403.754 2871.9 397.707C2861.23 391.304 2846.65 388.103 2828.15 388.103C2810.73 388.103 2794.72 392.194 2780.14 400.374C2765.55 408.555 2752.93 420.293 2742.26 435.587C2731.59 450.526 2723.23 468.666 2717.18 490.007C2711.49 510.993 2708.47 534.468 2708.11 560.433C2707.76 560.789 2707.58 565.235 2707.58 573.772C2707.58 581.952 2707.4 592.267 2707.04 604.716C2707.04 617.165 2707.04 630.681 2707.04 645.265C2707.04 659.492 2707.04 673.008 2707.04 685.813C2707.04 698.617 2707.04 709.466 2707.04 718.358C2707.04 726.895 2707.04 731.518 2707.04 732.23C2707.04 739.699 2708.47 745.568 2711.31 749.836C2714.51 753.749 2719.67 756.772 2726.78 758.906C2733.9 760.685 2743.32 761.752 2755.06 762.107C2766.8 762.107 2781.2 762.107 2798.28 762.107V809.592C2786.9 809.592 2775.87 809.592 2765.2 809.592C2754.88 809.236 2744.04 809.058 2732.65 809.058C2721.27 809.058 2709.18 809.058 2696.37 809.058C2683.92 808.702 2670.05 808.525 2654.76 808.525C2641.6 808.525 2629.68 808.702 2619.01 809.058C2608.34 809.058 2598.2 809.058 2588.6 809.058C2579.35 809.058 2570.28 809.236 2561.39 809.592C2552.5 809.592 2543.25 809.592 2533.65 809.592V762.107C2553.92 762.107 2569.57 761.752 2580.6 761.04C2591.98 759.973 2600.34 758.195 2605.67 755.705C2611.01 753.215 2614.03 749.658 2614.74 745.035C2615.81 740.411 2616.34 734.542 2616.34 727.428V404.109C2616.34 398.063 2615.28 393.439 2613.14 390.237C2611.36 386.681 2607.45 384.191 2601.4 382.768C2595.71 380.99 2587.53 380.1 2576.86 380.1C2566.55 379.745 2553.03 379.567 2536.31 379.567V332.083C2540.23 332.083 2546.27 332.261 2554.45 332.616C2562.99 332.616 2571.35 332.616 2579.53 332.616H2611.01C2625.95 332.616 2640.89 332.261 2655.82 331.549C2671.12 330.838 2686.77 330.304 2702.78 329.949V427.051C2719.85 393.616 2743.5 367.473 2773.73 348.622C2804.32 329.415 2840.43 319.812 2882.04 319.812C2897.69 319.812 2913.88 320.879 2930.59 323.013V432.386Z" fill="white"/>
<path d="M2420 690.081C2420 708.577 2420.54 722.804 2421.61 732.763C2423.03 742.367 2425.52 749.481 2429.07 754.105C2432.63 758.373 2437.61 760.863 2444.01 761.574C2450.77 761.93 2459.49 762.107 2470.16 762.107H2494.17V809.592C2466.07 809.592 2438.14 809.769 2410.4 810.125C2383.01 810.481 2357.4 811.014 2333.57 811.726V738.632C2312.23 766.02 2286.8 786.65 2257.28 800.522C2228.11 814.038 2193.97 820.796 2154.84 820.796C2129.23 820.796 2106.11 817.061 2085.48 809.592C2064.85 802.478 2047.25 792.519 2032.66 779.714C2018.08 766.909 2006.7 751.615 1998.52 733.83C1990.69 716.046 1986.78 696.483 1986.78 675.142C1986.78 652.378 1991.4 631.748 2000.65 613.253C2009.9 594.401 2023.41 578.396 2041.2 565.235C2058.98 552.075 2080.5 541.938 2105.76 534.824C2131.37 527.355 2160.53 523.62 2193.25 523.62C2215.66 523.62 2238.25 525.398 2261.01 528.955C2283.78 532.156 2306.9 536.78 2330.37 542.827V465.999C2330.37 433.631 2319.52 408.911 2297.83 391.838C2276.49 374.765 2243.58 366.229 2199.12 366.229C2161.78 366.229 2132.43 373.52 2111.09 388.103C2090.11 402.331 2076.06 424.561 2068.94 454.794L2019.86 448.926L2026.79 355.024C2049.56 344.71 2076.06 336.351 2106.29 329.949C2136.88 323.191 2171.2 319.812 2209.26 319.812C2246.96 319.812 2279.15 323.191 2305.83 329.949C2332.51 336.707 2354.2 347.022 2370.92 360.893C2387.99 374.765 2400.44 392.549 2408.27 414.246C2416.09 435.587 2420 460.841 2420 490.007V690.081ZM2213.53 568.436C2192.19 568.436 2172.98 570.926 2155.91 575.906C2138.83 580.53 2124.25 587.288 2112.16 596.18C2100.42 605.072 2091.35 615.92 2084.95 628.725C2078.55 641.53 2075.34 656.113 2075.34 672.475C2075.34 687.058 2077.83 700.04 2082.81 711.422C2088.15 722.448 2095.44 731.874 2104.69 739.699C2114.29 747.524 2125.67 753.749 2138.83 758.373C2152 762.997 2166.4 765.131 2182.05 764.775C2199.12 765.131 2216.37 762.641 2233.8 757.306C2251.59 751.615 2267.59 743.79 2281.82 733.83C2296.05 723.516 2307.61 710.711 2316.5 695.416C2325.75 679.766 2330.37 661.093 2330.37 639.396V587.11C2309.03 581.063 2288.76 576.439 2269.55 573.238C2250.34 570.037 2231.67 568.436 2213.53 568.436Z" fill="white"/>
<path d="M1839.52 724.76C1839.52 733.652 1841.13 740.588 1844.33 745.568C1847.88 750.548 1853.04 754.282 1859.8 756.772C1866.91 759.262 1875.45 760.862 1885.41 761.574C1895.72 761.93 1907.82 762.107 1921.69 762.107V809.591C1911.73 809.591 1901.95 809.591 1892.34 809.591C1882.74 809.591 1872.78 809.591 1862.47 809.591C1852.51 809.591 1842.01 809.591 1830.99 809.591C1819.96 809.236 1807.87 808.88 1794.71 808.524C1781.9 808.524 1769.99 808.702 1758.96 809.058C1747.94 809.058 1737.44 809.058 1727.48 809.058C1717.52 809.058 1707.92 809.236 1698.67 809.591C1689.43 809.591 1680 809.591 1670.4 809.591C1670.4 806.746 1670.4 803.189 1670.4 798.921C1670.4 794.653 1670.22 790.384 1669.86 786.116C1669.86 781.492 1669.86 777.046 1669.86 772.778C1669.86 768.51 1669.86 764.953 1669.86 762.107C1690.14 762.107 1705.61 761.218 1716.28 759.44C1727.31 757.661 1735.31 754.994 1740.29 751.437C1745.27 747.88 1748.11 743.434 1748.82 738.099C1749.89 732.763 1750.43 726.361 1750.43 718.891V194.965C1750.43 188.563 1748.65 183.583 1745.09 180.027C1741.89 176.47 1736.91 173.98 1730.15 172.557C1723.39 170.779 1715.21 169.712 1705.61 169.356C1696.01 169 1684.98 168.645 1672.53 168.289V120.271C1700.63 120.271 1727.84 120.093 1754.16 119.738C1780.48 119.382 1808.94 118.849 1839.52 118.137V724.76Z" fill="white"/>
<path d="M1316.67 761.04C1353.3 761.04 1385.49 758.195 1413.23 752.504C1440.98 746.457 1464.28 736.498 1483.13 722.626C1501.98 708.399 1516.21 689.725 1525.81 666.606C1535.41 643.13 1540.39 613.964 1540.75 579.107L1602.64 589.777L1597.3 728.495C1575.96 746.991 1553.38 762.285 1529.54 774.379C1506.07 786.472 1481.88 796.075 1456.98 803.189C1432.44 810.303 1407.37 815.282 1381.76 818.128C1356.5 820.973 1331.43 822.396 1306.53 822.396C1248.91 822.396 1198.22 813.86 1154.47 796.787C1111.08 779.714 1074.62 755.705 1045.1 724.76C1015.58 693.46 993.347 655.935 978.408 612.186C963.469 568.436 956 519.885 956 466.532C956 412.112 964.536 363.027 981.609 319.278C998.682 275.173 1022.69 237.47 1053.64 206.17C1084.58 174.869 1121.57 150.86 1164.61 134.143C1208 117.07 1256.02 108.534 1308.66 108.534C1348.86 108.534 1386.74 114.936 1422.3 127.741C1457.87 140.545 1488.82 158.508 1515.14 181.627L1521.01 128.808H1587.7V320.345L1525.81 319.278C1523.68 294.735 1517.1 273.039 1506.07 254.187C1495.4 235.336 1480.99 219.686 1462.85 207.237C1445.07 194.432 1423.73 184.828 1398.83 178.426C1374.29 172.024 1346.9 168.823 1316.67 168.823C1277.54 168.823 1242.15 175.758 1210.49 189.63C1179.19 203.502 1152.34 223.243 1129.93 248.852C1107.88 274.461 1090.81 305.584 1078.71 342.22C1066.62 378.5 1060.57 419.226 1060.57 464.398C1060.57 510.281 1066.62 551.541 1078.71 588.177C1090.81 624.812 1107.88 655.935 1129.93 681.544C1152.34 707.154 1179.19 726.894 1210.49 740.766C1242.15 754.282 1277.54 761.04 1316.67 761.04Z" fill="white"/>
</svg>
