<svg width="40" height="40" viewBox="0 0 1024 1024" fill="none" xmlns="http://www.w3.org/2000/svg">
<g clip-path="url(#clip0_66_76)">
<path d="M901.606 289.569L515.134 512.507L906.498 740.337C916.002 751.518 908.129 759.905 903.004 762.7L537.497 973.058C522.402 981.445 500.458 976.553 491.372 973.058L130.758 764.797C111.749 753.056 106.065 731.95 105.599 722.865V305.643C102.244 287.193 121.44 267.671 131.457 260.216L493.469 51.2561C510.242 43.9879 530.276 48.2277 538.196 51.2561L906.498 264.41C916.562 275.033 907.43 285.609 901.606 289.569Z" fill="#A5B6FB"/>
<path fill-rule="evenodd" clip-rule="evenodd" d="M516.334 513.206L906.498 740.337C916.003 751.518 908.129 759.905 903.004 762.7L537.497 973.058C522.402 981.445 500.458 976.553 491.372 973.058L130.758 764.797C122.346 759.601 116.544 752.572 112.648 745.561L515.445 513.206H516.334Z" fill="#4A6CF7"/>
<path fill-rule="evenodd" clip-rule="evenodd" d="M515.928 512.969L515.133 512.507L901.606 289.569C907.429 285.609 916.561 275.033 906.498 264.41L538.196 51.2561C530.276 48.2277 510.241 43.9879 493.469 51.2561L131.457 260.216C126.136 264.176 118.227 271.539 112.482 280.338L515.443 513.205L515.928 512.969Z" fill="#4A6CF7"/>
</g>
<defs>
<clipPath id="clip0_66_76">
<rect width="1024" height="1024" fill="white"/>
</clipPath>
</defs>
</svg>
